<svg width="32" height="32" viewBox="0 0 32 32" fill="none" xmlns="http://www.w3.org/2000/svg">
<path d="M28.3464 20.5173H16.5917C19.2603 20.2934 21.3563 18.0565 21.3563 15.3301C21.3563 12.4551 19.0257 10.1244 16.1507 10.1244H12.31C13.1861 8.94598 13.7045 7.48575 13.7045 5.90444C13.7045 3.43895 12.4443 1.26781 10.5329 0H28.3464C30.0491 0 31.4294 1.38032 31.4294 3.08302V17.4343C31.4294 19.137 30.0491 20.5173 28.3464 20.5173Z" fill="#87B1DF"/>
<path d="M6.62445 10.1274C8.95672 10.1274 10.8474 8.2367 10.8474 5.90444C10.8474 3.57217 8.95672 1.6815 6.62445 1.6815C4.29219 1.6815 2.40152 3.57217 2.40152 5.90444C2.40152 8.2367 4.29219 10.1274 6.62445 10.1274Z" fill="#87B1DF"/>
<path d="M18.4992 15.3301C18.4992 14.033 17.4477 12.9816 16.1507 12.9816H6.6253C3.28138 12.9816 0.570602 15.6924 0.570602 19.0363V21.7918C0.570602 23.0082 1.55672 23.9944 2.77316 23.9944H3.16547L3.81 29.9598C3.93539 31.1204 4.91516 32 6.08249 32H7.23055C8.37116 32 9.3372 31.1591 9.49444 30.0294L11.2135 17.6786H16.1507C17.4477 17.6786 18.4992 16.6271 18.4992 15.3301Z" fill="#87B1DF"/>
</svg>
