<svg width="32" height="32" viewBox="0 0 32 32" fill="none" xmlns="http://www.w3.org/2000/svg">
<path fill-rule="evenodd" clip-rule="evenodd" d="M16 32C24.8366 32 32 24.8366 32 16C32 7.16344 24.8366 0 16 0C7.16344 0 0 7.16344 0 16C0 24.8366 7.16344 32 16 32ZM17.4286 10.2857C17.4286 9.49674 16.789 8.85714 16 8.85714C15.211 8.85714 14.5714 9.49674 14.5714 10.2857V16C14.5714 16.3342 14.6886 16.6578 14.9025 16.9145L20.6168 23.7717C21.1219 24.3778 22.0227 24.4597 22.6288 23.9546C23.2349 23.4495 23.3168 22.5487 22.8117 21.9426L17.4286 15.4828V10.2857Z" fill="#87B1DF"/>
</svg>
