<svg width="32" height="32" viewBox="0 0 32 32" fill="none" xmlns="http://www.w3.org/2000/svg">
<path fill-rule="evenodd" clip-rule="evenodd" d="M0.602597 3.02705C-0.0668733 2.35758 -0.0668733 1.27216 0.602597 0.602689C1.27207 -0.0667816 2.35749 -0.0667816 3.02696 0.602689L9.03521 6.61094C11.1103 5.47071 13.4694 4.66343 16 4.66343C19.5017 4.66343 22.6752 6.20924 25.2219 8.044C27.7778 9.88541 29.8012 12.0889 31.0261 13.5693L31.0363 13.5818C31.5833 14.2625 31.8713 15.125 31.8713 16.0002C31.8713 16.8755 31.5833 17.738 31.0363 18.4187L31.0261 18.4312C29.9092 19.781 28.1286 21.7319 25.8857 23.4614L31.3974 28.9731C32.0669 29.6426 32.0669 30.728 31.3974 31.3975C30.7279 32.0669 29.6425 32.0669 28.973 31.3975L0.602597 3.02705ZM20.6106 18.1863C20.9253 17.5237 21.1015 16.7824 21.1015 16.0001C21.1015 13.1826 18.8175 10.8986 16 10.8986C15.2176 10.8986 14.4763 11.0747 13.8137 11.3894L20.6106 18.1863Z" fill="#87B1DF"/>
<path d="M0.973878 13.5693C1.70405 12.6868 2.71795 11.5474 3.95925 10.3809L20.197 26.6187C18.8699 27.067 17.4636 27.337 16 27.337C12.4983 27.337 9.32472 25.7912 6.77806 23.9565C4.22217 22.1151 2.19878 19.9116 0.973878 18.4312L0.963653 18.4187C0.416646 17.738 0.128638 16.8755 0.128638 16.0002C0.128638 15.125 0.416646 14.2625 0.963653 13.5818L0.973878 13.5693Z" fill="#87B1DF"/>
</svg>
