<svg width="149" height="127" viewBox="0 0 149 127" fill="none" xmlns="http://www.w3.org/2000/svg">
<path d="M46.3287 11.1259L70.7221 29.2043C71.7064 30.1238 72.8046 30.9421 74.0025 31.6356L74.0963 31.705C74.0983 31.7066 74.101 31.7064 74.1029 31.705L74.1048 31.7021L74.1064 31.6994L74.1095 31.6981L74.1126 31.6988C75.4521 32.4617 76.9143 33.0692 78.4793 33.4886C87.939 36.0233 97.5775 30.7263 100.008 21.6573C102.438 12.5884 96.7388 3.18182 87.2793 0.647095C85.7141 0.227722 84.1441 0.0227356 82.6027 0.0137634C82.5992 0.0137329 82.5965 0.0103149 82.5975 0.00686646C82.598 0.00488281 82.5961 0.00161743 82.5961 0.00161743L82.5943 0.000366211L82.5916 0L82.4743 0.0134583C81.0911 0.0151672 79.7318 0.174591 78.4204 0.478424L48.2546 3.93829C44.6499 4.35175 43.4137 8.96542 46.3287 11.1259Z" fill="#2C4C70"/>
<path d="M113.984 35.2322L109.519 5.20013C108.985 1.61118 113.122 -0.777039 115.963 1.47955L139.74 20.3635C140.882 21.0759 141.956 21.9244 142.935 22.9012L143.027 22.9747L143.029 22.9777C143.03 22.9799 143.029 22.9824 143.027 22.9837C143.024 22.9855 143.023 22.9897 143.026 22.9923C144.109 24.0886 145.074 25.3437 145.885 26.7469C150.781 35.2282 148.159 45.9092 140.028 50.6037C131.897 55.2981 121.336 52.2282 116.44 43.7469C115.63 42.3437 115.025 40.8802 114.618 39.3936C114.617 39.3902 114.613 39.3886 114.61 39.3904L114.606 39.391L114.603 39.3892L114.602 39.3865L114.584 39.271C114.228 37.9337 114.03 36.5784 113.984 35.2322Z" fill="#2C4C70"/>
<path d="M35.2386 55.986L5.2065 60.4513C1.61757 60.9849 -0.770675 56.8484 1.48592 54.007L20.3698 30.2301C21.0822 29.088 21.9307 28.0141 22.9076 27.0349L22.981 26.9424C22.9834 26.9394 22.9881 26.9397 22.9901 26.9431C22.9918 26.9462 22.9961 26.9467 22.9987 26.9442C24.0949 25.8606 25.3501 24.8954 26.7533 24.0853C35.2346 19.1886 45.9156 21.8105 50.6101 29.9415C55.3044 38.0724 52.2346 48.6335 43.7533 53.5302C42.3501 54.3403 40.8866 54.9447 39.4 55.3523L39.3985 55.353L39.3967 55.3548C39.3967 55.3548 39.3957 55.3585 39.3967 55.3602C39.3986 55.3635 39.3966 55.3677 39.3928 55.3683L39.2774 55.3855C37.94 55.7422 36.5848 55.9401 35.2386 55.986Z" fill="#2C4C70"/>
<path d="M29.2043 100.191L11.1259 124.585C8.96547 127.5 4.35176 126.263 3.93831 122.659L0.47841 92.4929C0.174577 91.1815 0.0151528 89.8222 0.0135048 88.439L1.60349e-05 88.3217C-0.000228106 88.3195 0.00239641 88.3166 0.00239641 88.3166L0.00685197 88.3158C0.010331 88.3167 0.0137489 88.3141 0.0137489 88.3105C0.0227821 86.7691 0.227738 85.1992 0.647111 83.6341C3.18184 74.1744 12.5885 68.4757 21.6574 70.9057C30.7263 73.3358 36.0233 82.9742 33.4886 92.4339C33.0692 93.999 32.4617 95.4612 31.6988 96.8006C31.6978 96.8024 31.6989 96.8062 31.6989 96.8062L31.7021 96.8085C31.7041 96.809 31.7059 96.8122 31.7059 96.8122L31.705 96.817L31.6356 96.9107C30.9421 98.1086 30.1239 99.2069 29.2043 100.191Z" fill="#2C4C70"/>
<path d="M117.467 69.3825C119.054 66.6351 118.112 63.1219 115.365 61.5357C112.617 59.9495 109.104 60.8908 107.518 63.6382C105.932 66.3857 106.873 69.8988 109.62 71.485C112.368 73.0713 115.881 72.1299 117.467 69.3825Z" fill="#2C4C70"/>
</svg>
