<svg width="48" height="48" viewBox="0 0 48 48" fill="none" xmlns="http://www.w3.org/2000/svg">
<path fill-rule="evenodd" clip-rule="evenodd" d="M14 14V28C14 33.5228 18.4772 38 24 38C29.5228 38 34 33.5228 34 28V27.5H26C25.1716 27.5 24.5 26.8284 24.5 26C24.5 25.1716 25.1716 24.5 26 24.5H34V17.5H26C25.1716 17.5 24.5 16.8284 24.5 16C24.5 15.1716 25.1716 14.5 26 14.5H34V14C34 8.47715 29.5228 4 24 4C18.4772 4 14 8.47715 14 14ZM9.5 24C9.5 23.1716 8.82843 22.5 8 22.5C7.17157 22.5 6.5 23.1716 6.5 24V28C6.5 37.665 14.335 45.5 24 45.5C33.665 45.5 41.5 37.665 41.5 28V24C41.5 23.1716 40.8284 22.5 40 22.5C39.1716 22.5 38.5 23.1716 38.5 24V28C38.5 36.0081 32.0081 42.5 24 42.5C15.9919 42.5 9.5 36.0081 9.5 28V24Z" fill="#293D53"/>
</svg>
