<svg width="32" height="32" viewBox="0 0 32 32" fill="none" xmlns="http://www.w3.org/2000/svg">
<path d="M27.8145 1.38288C27.7055 1.08379 27.4767 0.843713 27.1832 0.72047C26.8897 0.597227 26.558 0.601988 26.2682 0.733607L8.8465 8.6446C8.30275 8.89151 8.04077 9.51543 8.24525 10.0765L8.50752 10.7962C8.57192 10.8913 8.62579 10.9959 8.66692 11.1087L10.9387 17.3423C10.9798 17.4552 11.0058 17.5698 11.0177 17.6841L11.2601 18.3492C11.4646 18.9103 12.0666 19.2194 12.6417 19.0585L15.5474 18.2459L11.1623 29.0073C10.805 29.884 11.2262 30.8844 12.1029 31.2417C12.9797 31.599 13.9801 31.1778 14.3374 30.3011L18.1824 20.865L22.0275 30.3011C22.3847 31.1778 23.3851 31.599 24.2619 31.2417C25.1387 30.8844 25.5598 29.884 25.2025 29.0073L20.2783 16.9228L31.0684 13.9051C31.3749 13.8193 31.6318 13.6096 31.7772 13.3264C31.9226 13.0432 31.9433 12.7122 31.8343 12.4131L27.8145 1.38288Z" fill="#87B1DF"/>
<path d="M8.32831 18.4896C8.30038 18.4356 8.27559 18.3792 8.25423 18.3206L6.17771 12.6227L3.48136 13.6054L3.42202 13.4425C3.09783 12.553 2.11392 12.0947 1.22437 12.4188C0.33483 12.743 -0.123486 13.7269 0.200695 14.6165L2.47244 20.8501C2.79662 21.7396 3.78054 22.1979 4.67008 21.8738C5.55963 21.5496 6.01794 20.5657 5.69376 19.6761L5.62091 19.4762L8.32831 18.4896Z" fill="#87B1DF"/>
</svg>
